inDegrees=no
num_controls=7
num_derivatives=13
num_iterations=142
num_multipliers=7
num_parameters=0
num_slacks=7
num_states=26
objective=0.323268
objective_accelerations=0.000000
objective_balance=0.002823
objective_effort=0.089506
objective_height=0.220530
objective_ligament=0.010409
solver_duration=1946.760263
status=Solve_Succeeded
success=true
DataType=double
version=3
OpenSimVersion=4.5
endheader
time	/jointset/ground_pelvis/pelvis_tilt/value	/jointset/ground_pelvis/pelvis_tx/value	/jointset/ground_pelvis/pelvis_ty/value	/jointset/hip_l/hip_flexion_l/value	/jointset/hip_l/hip_adduction_l/value	/jointset/hip_l/hip_rotation_l/value	/jointset/back/lumbar_extension/value	/jointset/patellofemoral_l/patellar_flexion_l/value	/jointset/knee_l/knee_flexion_l/value	/jointset/knee_l/knee_adduction_l/value	/jointset/knee_l/knee_rotation_l/value	/jointset/ankle_l/ankle_angle_l/value	/jointset/subtalar_l/subtalar_angle_l/value	/jointset/ground_pelvis/pelvis_tilt/speed	/jointset/ground_pelvis/pelvis_tx/speed	/jointset/ground_pelvis/pelvis_ty/speed	/jointset/hip_l/hip_flexion_l/speed	/jointset/hip_l/hip_adduction_l/speed	/jointset/hip_l/hip_rotation_l/speed	/jointset/back/lumbar_extension/speed	/jointset/patellofemoral_l/patellar_flexion_l/speed	/jointset/knee_l/knee_flexion_l/speed	/jointset/knee_l/knee_adduction_l/speed	/jointset/knee_l/knee_rotation_l/speed	/jointset/ankle_l/ankle_angle_l/speed	/jointset/subtalar_l/subtalar_angle_l/speed	/forceset/tau_hip_flexion_l	/forceset/tau_hip_adduction_l	/forceset/tau_hip_rotation_l	/forceset/tau_knee_flexion_l	/forceset/tau_ankle_angle_l	/forceset/tau_subtalar_angle_l	/forceset/tau_lumbar_extension	lambda_cid13_p0	lambda_cid13_p1	lambda_cid13_p2	lambda_cid13_p3	lambda_cid13_p4	lambda_cid13_p5	lambda_cid14_p0	/jointset/ground_pelvis/pelvis_tilt/accel	/jointset/ground_pelvis/pelvis_tx/accel	/jointset/ground_pelvis/pelvis_ty/accel	/jointset/hip_l/hip_flexion_l/accel	/jointset/hip_l/hip_adduction_l/accel	/jointset/hip_l/hip_rotation_l/accel	/jointset/back/lumbar_extension/accel	/jointset/patellofemoral_l/patellar_flexion_l/accel	/jointset/knee_l/knee_flexion_l/accel	/jointset/knee_l/knee_adduction_l/accel	/jointset/knee_l/knee_rotation_l/accel	/jointset/ankle_l/ankle_angle_l/accel	/jointset/subtalar_l/subtalar_angle_l/accel	gamma_cid13_p0	gamma_cid13_p1	gamma_cid13_p2	gamma_cid13_p3	gamma_cid13_p4	gamma_cid13_p5	gamma_cid14_p0
1.5	-0.04609349601472629	-0.08971853546249359	0.412283082724335	2.094238221406154	-0.2900661161079439	0.1244264124741939	-0.8991811196491758	2.094389565493518	2.094389565493518	0.1743080726449163	-0.1744045112004538	0.1914795813290834	0.07422488135960967	-0.4415554961098352	0.1666893055021169	0.06968497519588251	-0.0006503456983631539	-0.04500534972238343	-0.004652891547309052	1.223109878353178	0.00337428676638683	0.00337428676638683	-0.004914405192937873	-0.00345836884603938	0.4676167172338558	0.1474473917147753	-0.3678928061099854	-0.103652374480469	-0.05970955554253701	-0.4074180822319887	0.3056836953171631	0.007700335808002843	0.5087657203061036	44.0419209961773	-1.753526041131614	-10.80004119550848	-107.7960843550436	-884.4543040551591	-36.25532392977846	-0.01930777453227232	-7.352514978302272	2.436685675861161	0.8015182849626566	0.7652643250194084	1.28212045048353	3.604386391419205	16.66962591740483	0.08728038152242092	0.0872803815224209	-2.337917870753294	1.717424884981186	6.989180717036711	4.630268989286892	-2.244127054610132e-07	-1.42443979638732e-06	1.642183647026428e-07	1.203193833812602e-07	5.443150837336504e-09	-3.567534546706486e-06	7.283804942839182e-08
1.51	-0.05089719771223668	-0.08793817530983737	0.4130311522409636	2.094256787125081	-0.2904810315369507	0.124460534477601	-0.8861120589472833	2.094379559208983	2.094379559208983	0.1741999229526704	-0.1743623227287076	0.1964863502555745	0.07589019277289775	-0.5213334125668125	0.188573524991848	0.08101401257383874	0.003289226372925122	-0.04103353480439933	0.001949649532344605	1.391386083738252	-0.01017284847948455	-0.01017284847948455	-0.01144095907580206	0.01043336584397003	0.5317283075953442	0.1812144508662849	-0.3824713660595626	-0.1031929283188707	-0.06176251654740549	-0.4438891514908375	0.2952480127710627	0.005861659802647094	0.5188493027321569	37.30529963068041	0.5163592276354174	-11.49524246486301	-85.70027956775841	-921.9454184370243	-41.40275902879462	-0.01974777020626573	-8.612727023135696	1.943159527120783	1.461450103418292	0.04713538256452565	-0.5022962744533672	-2.240929798302138	17.00919110599986	-2.795373942783567	-2.795373942783567	0.9816678503143283	1.004545230786427	5.820811795066869	2.08998601823048	-7.346809261954848e-08	1.863480608281227e-06	-3.697347950495988e-06	8.640842959719288e-07	3.02060265938024e-07	-4.596533192164065e-07	2.483208657185477e-07
1.52	-0.05656313798306489	-0.08596319907396549	0.4139250828592129	2.094282514911597	-0.2909476304741596	0.1242748583388965	-0.8713397215401519	2.094090148878961	2.094090148878962	0.1741848461210693	-0.1742253174161061	0.2020739678055528	0.07776118710573045	-0.6140032107733994	0.2056125221452471	0.09885719552004242	0.0007820678194555496	-0.05534205136276629	-0.0486125199696144	1.563765219400979	-0.05250652233102202	-0.05250652233102202	0.0137001669360261	0.01550499932500384	0.5837864419313079	0.1885839756236941	-0.3970499260091397	-0.1027334821572723	-0.06381547755227397	-0.4803602207496863	0.2848123302249623	0.004022983797291346	0.52893288515821	30.58677878480442	2.819200879286058	-12.23696825065976	-64.39436934439694	-959.6029997308506	-46.32612748403996	-0.02024243329639445	-9.930891328224169	1.467641208594761	2.104347398612146	-0.5240817999319001	-2.373945844786675	-7.828555724903315	17.49021197293545	-5.670027339610792	-5.670027339610791	3.995618108185169	-0.04659535681393395	4.578489511931446	-0.6492378895331878	-2.241363489398999e-07	3.303139590417279e-06	-2.77358978158634e-06	1.078014182101856e-06	6.835484641802601e-07	5.928141623660696e-06	-1.559348132458942e-07
1.53	-0.06322606681211498	-0.08384074606617711	0.4150240728771568	2.094267408027284	-0.2916065017053215	0.1235082086223823	-0.8548151433701826	2.093245303081793	2.093245303081793	0.1744125017947241	-0.174099575687147	0.2081263663672402	0.07962278002878982	-0.7214807325778892	0.2181805814964174	0.1214071835929842	-0.003005723803080394	-0.07516854139206565	-0.09448903685957205	1.742810767559261	-0.1200659527384762	-0.1200659527384763	0.02167019024830811	0.007186926009235819	0.6250479097072328	0.1844159269724338	-0.3989723828306844	-0.09789683272263412	-0.06281987052060055	-0.5093993606633636	0.2783568004067017	0.004516267730652467	0.5266981820985742	26.62204460096669	3.488094050825246	-12.55941965859962	-49.0374922862861	-979.2703107276519	-52.34949010149052	-0.02079341413634924	-11.59111402099702	1.046872040046436	2.400562384080503	-0.1866607740417109	-1.598329261975893	-1.433374166085285	18.3607791822337	-7.839053767646323	-7.839053767646322	-2.327675921861263	-1.591025935172328	3.653164615016454	-0.1995413320242079	-6.952682787446776e-07	2.779020811112579e-06	3.234575651688297e-06	7.28994352617252e-07	1.155212188260391e-06	1.580084488913647e-05	-1.17616264341834e-06
